<?xml version="1.0" encoding="UTF-8" standalone="no"?>
<!-- Uploaded to: SVG Repo, www.svgrepo.com, Generator: SVG Repo Mixer Tools -->

<svg
   fill="#000000"
   version="1.1"
   width="384.52188"
   height="798.43616"
   viewBox="0 0 246.094 510.99914"
   xml:space="preserve"
   id="svg1"
   sodipodi:docname="facebook-hover.svg"
   inkscape:version="1.3.2 (091e20e, 2023-11-25, custom)"
   xmlns:inkscape="http://www.inkscape.org/namespaces/inkscape"
   xmlns:sodipodi="http://sodipodi.sourceforge.net/DTD/sodipodi-0.dtd"
   xmlns="http://www.w3.org/2000/svg"
   xmlns:svg="http://www.w3.org/2000/svg"><defs
   id="defs1" /><sodipodi:namedview
   id="namedview1"
   pagecolor="#ffffff"
   bordercolor="#666666"
   borderopacity="1.0"
   inkscape:showpageshadow="2"
   inkscape:pageopacity="0.0"
   inkscape:pagecheckerboard="0"
   inkscape:deskcolor="#d1d1d1"
   inkscape:zoom="0.49983611"
   inkscape:cx="-512.16788"
   inkscape:cy="475.15575"
   inkscape:window-width="2560"
   inkscape:window-height="1369"
   inkscape:window-x="1912"
   inkscape:window-y="-8"
   inkscape:window-maximized="1"
   inkscape:current-layer="svg1" />

<g
   id="7935ec95c421cee6d86eb22ecd11b7e3"
   transform="translate(-132.953,-0.49984518)"
   style="fill:#ffffff;fill-opacity:1">

<path
   style="display:inline;fill:#ffffff;fill-opacity:1"
   d="m 283.122,122.174 c 0,5.24 0,22.319 0,46.583 h 83.424 l -9.045,74.367 h -74.379 c 0,114.688 0,268.375 0,268.375 h -98.726 c 0,0 0,-151.653 0,-268.375 h -51.443 v -74.367 h 51.443 c 0,-29.492 0,-50.463 0,-56.302 0,-27.82 -2.096,-41.02 9.725,-62.578 11.827,-21.557 45.187,-50.051 102.886,-49.365 57.713,0.711 82.04,6.263 82.04,6.263 l -12.501,79.257 c 0,0 -36.853,-9.731 -54.942,-6.263 -18.065,3.469 -28.482,14.597 -28.482,42.405 z"
   id="path1">

</path>

</g>

</svg>
