<?xml version="1.0" encoding="UTF-8" standalone="no"?>
<!-- Uploaded to: SVG Repo, www.svgrepo.com, Generator: SVG Repo Mixer Tools -->

<svg
   width="800"
   height="640"
   viewBox="0 -2 20 16"
   version="1.1"
   id="svg1"
   sodipodi:docname="twitter-hover.svg"
   inkscape:version="1.3.2 (091e20e, 2023-11-25, custom)"
   xmlns:inkscape="http://www.inkscape.org/namespaces/inkscape"
   xmlns:sodipodi="http://sodipodi.sourceforge.net/DTD/sodipodi-0.dtd"
   xmlns="http://www.w3.org/2000/svg"
   xmlns:svg="http://www.w3.org/2000/svg"
   xmlns:rdf="http://www.w3.org/1999/02/22-rdf-syntax-ns#"
   xmlns:cc="http://creativecommons.org/ns#"
   xmlns:dc="http://purl.org/dc/elements/1.1/">
  <sodipodi:namedview
     id="namedview1"
     pagecolor="#ffffff"
     bordercolor="#666666"
     borderopacity="1.0"
     inkscape:showpageshadow="2"
     inkscape:pageopacity="0.0"
     inkscape:pagecheckerboard="0"
     inkscape:deskcolor="#d1d1d1"
     inkscape:zoom="0.706875"
     inkscape:cx="-45.269673"
     inkscape:cy="261.00796"
     inkscape:window-width="2560"
     inkscape:window-height="1369"
     inkscape:window-x="1912"
     inkscape:window-y="-8"
     inkscape:window-maximized="1"
     inkscape:current-layer="svg1" />
  <title
     id="title1">twitter [#154]</title>
  <desc
     id="desc1">Created with Sketch.</desc>
  <defs
     id="defs1" />
  <g
     id="Page-1"
     stroke="none"
     stroke-width="1"
     fill="none"
     fill-rule="evenodd"
     transform="translate(0,-2.0000004)">
    <g
       id="Dribbble-Light-Preview"
       transform="translate(-60,-7521)"
       fill="#000000">
      <g
         id="icons"
         transform="translate(56,160)">
        <path
           d="m 10.29,7377 c 7.547,0 11.675,-6.1564 11.675,-11.4945 0,-0.1753 0,-0.3496 -0.012,-0.5228 0.803,-0.5711 1.496,-1.2799 2.047,-2.0912 -0.748,0.3269 -1.543,0.5415 -2.356,0.636 0.856,-0.5051 1.497,-1.2986 1.804,-2.2349 -0.806,0.4706 -1.687,0.8024 -2.606,0.9806 -1.554,-1.6265 -4.153,-1.7052 -5.806,-0.1752 -1.065,0.9865 -1.518,2.4574 -1.187,3.8603 -3.299,-0.1634 -6.373,-1.6973 -8.457,-4.2207 -1.089,1.846 -0.532,4.207 1.271,5.3924 -0.653,-0.019 -1.292,-0.192 -1.863,-0.5051 v 0.051 c 0.001,1.9228 1.378,3.5788 3.292,3.9598 -0.604,0.1625 -1.238,0.1861 -1.852,0.069 0.537,1.6462 2.078,2.7735 3.833,2.806 -1.453,1.1243 -3.248,1.7347 -5.096,1.7328 -0.326,0 -0.652,-0.02 -0.977,-0.058 1.877,1.1854 4.06,1.8145 6.29,1.8115"
           id="twitter-[#154]"
           style="fill:#ffffff;fill-opacity:1" />
      </g>
    </g>
  </g>
  <metadata
     id="metadata1">
    <rdf:RDF>
      <cc:Work
         rdf:about="">
        <dc:title>twitter [#154]</dc:title>
      </cc:Work>
    </rdf:RDF>
  </metadata>
</svg>
